<?xml version="1.0" encoding="UTF-8" standalone="no"?>
<!-- Created with Inkscape (http://www.inkscape.org/) -->

<svg
   xmlns:osb="http://www.openswatchbook.org/uri/2009/osb"
   xmlns:dc="http://purl.org/dc/elements/1.1/"
   xmlns:cc="http://creativecommons.org/ns#"
   xmlns:rdf="http://www.w3.org/1999/02/22-rdf-syntax-ns#"
   xmlns:svg="http://www.w3.org/2000/svg"
   xmlns="http://www.w3.org/2000/svg"
   xmlns:sodipodi="http://sodipodi.sourceforge.net/DTD/sodipodi-0.dtd"
   xmlns:inkscape="http://www.inkscape.org/namespaces/inkscape"
   width="10.5in"
   height="2.25in"
   viewBox="0 0 266.7 57.15"
   version="1.1"
   id="svg8"
   inkscape:version="0.92.2 (5c3e80d, 2017-08-06)"
   sodipodi:docname="dibujo.svg">
  <defs
     id="defs2">
    <linearGradient
       osb:paint="solid"
       id="linearGradient6032">
      <stop
         id="stop6030"
         offset="0"
         style="stop-color:#000000;stop-opacity:1;" />
    </linearGradient>
    <linearGradient
       osb:paint="gradient"
       id="linearGradient5986">
      <stop
         id="stop5982"
         offset="0"
         style="stop-color:#000000;stop-opacity:1;" />
      <stop
         id="stop5984"
         offset="1"
         style="stop-color:#000000;stop-opacity:0;" />
    </linearGradient>
  </defs>
  <sodipodi:namedview
     id="base"
     pagecolor="#ffffff"
     bordercolor="#666666"
     borderopacity="1.0"
     inkscape:pageopacity="0.0"
     inkscape:pageshadow="2"
     inkscape:zoom="0.35"
     inkscape:cx="247.84417"
     inkscape:cy="578.50573"
     inkscape:document-units="mm"
     inkscape:current-layer="layer1"
     showgrid="false"
     inkscape:window-width="1366"
     inkscape:window-height="705"
     inkscape:window-x="-8"
     inkscape:window-y="-8"
     inkscape:window-maximized="1"
     inkscape:snap-global="true"
     units="in" />
  <metadata
     id="metadata5">
    <rdf:RDF>
      <cc:Work
         rdf:about="">
        <dc:format>image/svg+xml</dc:format>
        <dc:type
           rdf:resource="http://purl.org/dc/dcmitype/StillImage" />
        <dc:title></dc:title>
      </cc:Work>
    </rdf:RDF>
  </metadata>
  <g
     inkscape:label="Capa 1"
     inkscape:groupmode="layer"
     id="layer1"
     transform="translate(0,-239.85)">
    <g
       id="layer1-8"
       inkscape:label="Capa 1"
       transform="matrix(1.5742872,0,0,1.7626906,-38.975986,8.675203)"
       style="stroke-width:0.1;stroke-miterlimit:4;stroke-dasharray:none;paint-order:stroke fill markers">
      <path
         transform="matrix(0.25457208,0,0,0.21017597,14.671887,131.39209)"
         style="fill:none;fill-rule:evenodd;stroke:#0061ee;stroke-width:0.43231776;stroke-miterlimit:4;stroke-dasharray:none;stroke-opacity:1;paint-order:stroke fill markers"
         d="m 94.494057,125.3988 c 0.06593,0.10014 -0.10245,0.13827 -0.166427,0.10958 -0.173372,-0.0778 -0.154645,-0.31649 -0.05272,-0.44243 0.182311,-0.22528 0.526955,-0.18508 0.718431,0.004 0.281,0.27766 0.217065,0.74051 -0.06098,0.99443 -0.370586,0.33844 -0.955195,0.24975 -1.270436,-0.11783 -0.3967,-0.46256 -0.282803,-1.17042 0.174678,-1.54644 0.554072,-0.4554 1.38596,-0.31607 1.822441,0.23153 0.514378,0.64533 0.349478,1.60169 -0.288381,2.09845 -0.736433,0.57352 -1.817546,0.38297 -2.374445,-0.34523 -0.632783,-0.82744 -0.416533,-2.0335 0.402083,-2.65045 0.918363,-0.69213 2.249507,-0.45014 2.926449,0.45893 0.751534,1.00924 0.483778,2.46557 -0.515784,3.20245 -1.100082,0.81099 -2.681671,0.51745 -3.478454,-0.57263 -0.870473,-1.1909 -0.551129,-2.8978 0.629486,-3.75446 1.281684,-0.92999 3.113958,-0.58483 4.030459,0.68634 0.989528,1.37245 0.618547,3.33013 -0.743188,4.30646 -1.463212,1.04908 -3.546323,0.65227 -4.582463,-0.80004 -1.108658,-1.55396 -0.68601,-3.76253 0.856889,-4.85846 1.644692,-1.16825 3.978743,-0.71976 5.134468,0.91374 1.227839,1.73541 0.753503,4.19496 -0.970591,5.41047 -1.826139,1.28744 -4.411202,0.78725 -5.686473,-1.02745 -1.347058,-1.91685 -0.821018,-4.62744 1.084293,-5.96247 2.007562,-1.40668 4.84369,-0.85478 6.238477,1.14114 1.466305,2.09827 0.888551,5.05994 -1.197994,6.51448 -2.188967,1.52594 -5.2762,0.92232 -6.790482,-1.25484 -1.585572,-2.27967 -0.956096,-5.49246 1.311696,-7.06649 2.370358,-1.64521 5.708726,-0.98987 7.342487,1.36855 1.704854,2.46105 1.023654,5.92499 -1.425398,7.61849 -2.551738,1.7645 -6.141267,1.05743 -7.894491,-1.48225 -1.824153,-2.64242 -1.091214,-6.35754 1.539099,-8.17049 2.733109,-1.88381 6.573818,-1.125 8.446496,1.59595 1.943458,2.82379 1.158778,6.79009 -1.652801,8.72249 -2.914474,2.00312 -7.006379,1.19257 -8.998501,-1.70965 -2.062775,-3.00515 -1.226358,-7.22266 1.766503,-9.2745 3.095832,-2.12244 7.438946,-1.26015 9.550507,1.82335 2.1821,3.18651 1.29393,7.65524 -1.880207,9.82651 -3.277185,2.24176 -7.87152,1.32773 -10.102509,-1.93705 -2.301428,-3.36787 -1.36152,-8.08781 1.993907,-10.37852 3.458535,-2.36109 8.304099,-1.39531 10.654509,2.05076 2.42077,3.54921 1.42911,8.52039 -2.107604,10.93052 -3.639881,2.48043 -8.736683,1.4629 -11.206519,-2.16446 -2.5401,-3.73056 -1.496694,-8.95298 2.221311,-11.48252 3.821225,-2.59977 9.16927,-1.53049 11.758522,2.27816 2.65944,3.91189 1.56429,9.38556 -2.335011,12.03452 -4.002566,2.71912 -9.601862,1.59809 -12.310528,-2.39186 -2.778788,-4.09323 -1.631878,-9.81816 2.448714,-12.58653 4.183904,-2.83846 10.034456,-1.66568 12.862535,2.50557 2.89813,4.27457 1.69947,10.25075 -2.562418,13.13853 -4.365241,2.95781 -10.467052,1.73327 -13.414537,-2.61927 -3.017487,-4.45591 -1.76707,-10.68335 2.676117,-13.69054 4.546577,-3.07716 10.899651,-1.80086 13.966538,2.73297 3.13684,4.63725 1.83467,11.11595 -2.78982,14.24255 -4.727905,3.19651 -11.332247,1.86846 -14.518542,-2.84667 -3.256194,-4.81858 -1.902266,-11.54856 2.903521,-14.79455 4.909243,-3.31588 11.764851,-1.93607 15.070551,2.96037 3.37555,4.99991 1.96987,11.98116 -3.01722,15.34655 -5.090576,3.43523 -12.197461,2.00367 -15.622558,-3.07407 -3.49491,-5.18124 -2.037468,-12.41376 3.130924,-15.89856 5.271904,-3.55459 12.630064,-2.07127 16.174564,3.18778 3.61426,5.36256 2.10507,12.84636 -3.24463,16.45056 -5.453232,3.67395 -13.062671,2.13887 -16.726564,-3.30148 -3.73363,-5.54389 -2.172673,-13.27897 3.358327,-17.00256 5.634562,-3.79332 13.495277,-2.20648 17.278567,3.41517 3.85299,5.72523 2.24028,13.71159 -3.47203,17.55458 -5.815885,3.91267 -13.927886,2.27407 -17.830571,-3.52888 -3.972355,-5.90656 -2.30788,-14.1442 3.585732,-18.10658 5.997215,-4.03204 14.360499,-2.34168 18.382579,3.64258 4.09172,6.08788 2.37548,14.57681 -3.69943,18.65858 -6.178545,4.1514 -14.793115,2.40929 -18.934587,-3.75628 -4.211084,-6.26921 -2.44309,-15.00942 3.813135,-19.21059 6.359867,-4.27076 15.225722,-2.47689 19.486582,3.86999 4.33045,6.45053 2.5107,15.44203 -3.92683,19.76259 -6.541193,4.39013 -15.658336,2.5445 -20.038594,-3.98369 -4.449816,-6.63185 -2.578301,-15.87464 4.040539,-20.31459 6.722517,-4.5095 16.090945,-2.61211 20.590595,4.09739 4.56918,6.81317 2.64591,16.30725 -4.15424,20.86659 -6.903839,4.62887 -16.523561,2.67972 -21.1426,-4.21109 -4.688551,-6.9945 -2.713516,-16.73987 4.267942,-21.4186 7.085165,-4.74824 16.956178,-2.74732 21.694608,4.32479 4.80792,7.17583 2.78112,17.17249 -4.38165,21.97061 -7.266483,4.8676 -17.388788,2.81493 -22.246606,-4.43849 -4.927288,-7.35715 -2.848731,-17.6051 4.495345,-22.52262 7.447811,-4.98697 17.821411,-2.88253 22.798611,4.5522 5.04666,7.53847 2.91634,18.03772 -4.60904,23.07462 -7.629136,5.10634 -18.254027,2.95014 -23.350623,-4.6659 -5.166026,-7.7198 -2.983947,-18.47033 4.722749,-23.62662 7.810456,-5.22571 18.686644,-3.01775 23.902624,4.7796 5.2854,7.90111 3.05156,18.90295 -4.83645,24.17862 -7.991777,5.34509 -19.119258,3.08536 -24.454629,-4.8933 -5.404767,-8.08244 -3.119164,-19.33556 4.950152,-24.73063 8.1731,-5.46445 19.551877,-3.15297 25.006637,5.007 5.52413,8.26376 3.18677,19.76819 -5.06386,25.28264 -8.354417,5.58382 -19.98449,3.22058 -25.558635,-5.1207 -5.64351,-8.44509 -3.254383,-20.20081 5.177556,-25.83465 8.535742,-5.70319 20.417109,-3.28818 26.110639,5.23441 5.76288,8.6264 3.322,20.63342 -5.29125,26.38665 -8.717067,5.82256 -20.849734,3.35579 -26.662652,-5.34811 -5.882252,-8.80773 -3.389602,-21.06604 5.40496,-26.93865 8.898383,-5.94194 21.282352,-3.42341 27.214652,5.46181 6.00162,8.98904 3.45721,21.49866 -5.51866,27.49065 -9.079705,6.06131 -21.714969,3.49102 -27.766658,-5.57551 -6.120997,-9.17036 -3.524822,-21.93128 5.632363,-28.04266 9.261025,-6.18068 22.147585,-3.55863 28.318665,5.68922 6.24037,9.35168 3.59243,22.36389 -5.74607,28.59466 -9.442343,6.30006 -22.580205,3.62624 -28.870664,-5.80292 -6.359743,-9.533 -3.660043,-22.79651 5.859766,-29.14667 9.623665,-6.41942 23.012828,-3.69384 29.422668,5.91662 2.68202,4.02124 3.92932,8.91737 3.50467,13.73178"
         id="path3705"
         inkscape:connector-curvature="0" />
      <g
         aria-label="Edwin marulanda"
         style="font-style:normal;font-weight:normal;font-size:10.58333302px;line-height:1.25;font-family:sans-serif;letter-spacing:0px;word-spacing:0px;fill:#000000;fill-opacity:1;stroke:none;stroke-width:0.1;stroke-miterlimit:4;stroke-dasharray:none;paint-order:stroke fill markers"
         id="text6064">
        <path
           d="m 41.165694,145.80952 h -8.449097 v -12.82436 h 8.449097 v 1.51584 h -6.743775 v 3.514 h 6.743775 v 1.51584 h -6.743775 v 4.76284 h 6.743775 z"
           style="font-size:17.63888931px;stroke-width:0.1;stroke-miterlimit:4;stroke-dasharray:none;paint-order:stroke fill markers"
           id="path5635"
           inkscape:connector-curvature="0" />
        <path
           d="m 51.552657,145.80952 h -1.619195 v -1.00769 q -0.697632,0.6029 -1.455553,0.93879 -0.757921,0.3359 -1.645033,0.3359 -1.722548,0 -2.738851,-1.32636 -1.007691,-1.32636 -1.007691,-3.67764 0,-1.22301 0.34451,-2.17902 0.353122,-0.95602 0.947401,-1.62781 0.585666,-0.65457 1.360813,-0.99908 0.783759,-0.34451 1.619195,-0.34451 0.757921,0 1.343587,0.16364 0.585666,0.15503 1.231622,0.49093 v -4.16857 h 1.619195 z m -1.619195,-2.3685 v -5.52076 q -0.654568,-0.29284 -1.171333,-0.4048 -0.516764,-0.11197 -1.128269,-0.11197 -1.360812,0 -2.118733,0.9474 -0.757921,0.9474 -0.757921,2.68718 0,1.71393 0.585666,2.60966 0.585666,0.88711 1.877577,0.88711 0.689019,0 1.395264,-0.30145 0.706244,-0.31006 1.317749,-0.79237 z"
           style="font-size:17.63888931px;stroke-width:0.1;stroke-miterlimit:4;stroke-dasharray:none;paint-order:stroke fill markers"
           id="path5637"
           inkscape:connector-curvature="0" />
        <path
           d="m 66.840268,136.1891 -2.506307,9.62042 h -1.498616 l -2.471857,-7.41556 -2.45463,7.41556 h -1.490004 l -2.532145,-9.62042 h 1.688097 l 1.765611,7.45001 2.402954,-7.45001 h 1.334975 l 2.463243,7.45001 1.670871,-7.45001 z"
           style="font-size:17.63888931px;stroke-width:0.1;stroke-miterlimit:4;stroke-dasharray:none;paint-order:stroke fill markers"
           id="path5639"
           inkscape:connector-curvature="0" />
        <path
           d="m 70.914093,134.57851 h -1.825901 v -1.67948 h 1.825901 z m -0.103353,11.23101 h -1.619195 v -9.62042 h 1.619195 z"
           style="font-size:17.63888931px;stroke-width:0.1;stroke-miterlimit:4;stroke-dasharray:none;paint-order:stroke fill markers"
           id="path5641"
           inkscape:connector-curvature="0" />
        <path
           d="m 82.076204,145.80952 h -1.619195 v -5.4777 q 0,-0.66318 -0.07752,-1.24023 -0.07751,-0.58567 -0.28422,-0.91295 -0.215319,-0.36174 -0.620117,-0.53399 -0.404799,-0.18087 -1.050754,-0.18087 -0.663181,0 -1.386651,0.32728 -0.72347,0.32729 -1.386651,0.83544 v 7.18302 h -1.619195 v -9.62042 h 1.619195 v 1.06797 q 0.757921,-0.62873 1.567518,-0.98185 0.809598,-0.35312 1.662259,-0.35312 1.558906,0 2.377116,0.93879 0.81821,0.93879 0.81821,2.7044 z"
           style="font-size:17.63888931px;stroke-width:0.1;stroke-miterlimit:4;stroke-dasharray:none;paint-order:stroke fill markers"
           id="path5643"
           inkscape:connector-curvature="0" />
        <path
           d="m 105.43395,145.80952 h -1.61919 v -5.4777 q 0,-0.62011 -0.0603,-1.19717 -0.0517,-0.57705 -0.23255,-0.92156 -0.19809,-0.37035 -0.56844,-0.55983 -0.37035,-0.18948 -1.06798,-0.18948 -0.6804,0 -1.36081,0.34451 -0.680406,0.3359 -1.360812,0.86127 0.02584,0.1981 0.04306,0.46509 0.01723,0.25838 0.01723,0.51677 v 6.1581 h -1.619195 v -5.4777 q 0,-0.63734 -0.06029,-1.20578 -0.05168,-0.57705 -0.232544,-0.92156 -0.198093,-0.37035 -0.568441,-0.55122 -0.370348,-0.18948 -1.06798,-0.18948 -0.663181,0 -1.334974,0.32728 -0.663181,0.32729 -1.326362,0.83544 v 7.18302 h -1.619195 v -9.62042 h 1.619195 v 1.06797 q 0.757921,-0.62873 1.507229,-0.98185 0.757921,-0.35312 1.610582,-0.35312 0.981853,0 1.662259,0.41341 0.689019,0.41341 1.024916,1.1455 0.981852,-0.82683 1.791452,-1.18856 0.8096,-0.37035 1.73116,-0.37035 1.58474,0 2.33405,0.96463 0.75792,0.95601 0.75792,2.67856 z"
           style="font-size:17.63888931px;stroke-width:0.1;stroke-miterlimit:4;stroke-dasharray:none;paint-order:stroke fill markers"
           id="path5645"
           inkscape:connector-curvature="0" />
        <path
           d="m 116.02762,145.80952 h -1.61058 v -1.02491 q -0.21532,0.14642 -0.58567,0.41341 -0.36173,0.25838 -0.70624,0.41341 -0.4048,0.19809 -0.93018,0.32729 -0.52538,0.1378 -1.23162,0.1378 -1.30053,0 -2.20486,-0.86127 -0.90434,-0.86128 -0.90434,-2.19625 0,-1.09382 0.46509,-1.76561 0.4737,-0.68041 1.34358,-1.06798 0.8785,-0.38758 2.11013,-0.52538 1.23162,-0.1378 2.64411,-0.20671 v -0.24977 q 0,-0.55121 -0.1981,-0.91295 -0.18948,-0.36173 -0.55121,-0.56844 -0.34451,-0.19809 -0.82682,-0.26699 -0.48232,-0.0689 -1.0077,-0.0689 -0.63734,0 -1.4211,0.17225 -0.78376,0.16364 -1.61919,0.48231 h -0.0861 v -1.64503 q 0.4737,-0.12919 1.36943,-0.28422 0.89572,-0.15503 1.76561,-0.15503 1.0163,0 1.76561,0.17226 0.75792,0.16364 1.30914,0.56844 0.5426,0.39618 0.82682,1.02491 0.28422,0.62873 0.28422,1.55891 z m -1.61058,-2.3685 v -2.67856 q -0.7407,0.0431 -1.74839,0.12919 -0.99908,0.0861 -1.58474,0.24977 -0.69764,0.19809 -1.12827,0.62012 -0.43064,0.41341 -0.43064,1.14549 0,0.82682 0.49954,1.24885 0.49954,0.41341 1.52445,0.41341 0.85267,0 1.55891,-0.32728 0.70624,-0.3359 1.30914,-0.80099 z"
           style="font-size:17.63888931px;stroke-width:0.1;stroke-miterlimit:4;stroke-dasharray:none;paint-order:stroke fill markers"
           id="path5647"
           inkscape:connector-curvature="0" />
        <path
           d="m 125.16573,137.95471 h -0.0861 q -0.36174,-0.0861 -0.70625,-0.12058 -0.3359,-0.0431 -0.80098,-0.0431 -0.74931,0 -1.44694,0.3359 -0.69764,0.32729 -1.34359,0.85266 v 6.8299 h -1.6192 v -9.62042 h 1.6192 v 1.4211 q 0.96463,-0.77515 1.69671,-1.09382 0.74069,-0.32728 1.50723,-0.32728 0.42202,0 0.6115,0.0258 0.18948,0.0172 0.56844,0.0775 z"
           style="font-size:17.63888931px;stroke-width:0.1;stroke-miterlimit:4;stroke-dasharray:none;paint-order:stroke fill markers"
           id="path5649"
           inkscape:connector-curvature="0" />
        <path
           d="m 134.68281,145.80952 h -1.61919 v -1.06798 q -0.81821,0.64596 -1.56752,0.99047 -0.74931,0.34451 -1.65365,0.34451 -1.51584,0 -2.35989,-0.92156 -0.84405,-0.93018 -0.84405,-2.72163 v -6.24423 h 1.6192 v 5.4777 q 0,0.73208 0.0689,1.25746 0.0689,0.51676 0.29283,0.88711 0.23255,0.37896 0.6029,0.55121 0.37034,0.17226 1.07659,0.17226 0.62873,0 1.36942,-0.32728 0.74931,-0.32729 1.39527,-0.83544 v -7.18302 h 1.61919 z"
           style="font-size:17.63888931px;stroke-width:0.1;stroke-miterlimit:4;stroke-dasharray:none;paint-order:stroke fill markers"
           id="path5651"
           inkscape:connector-curvature="0" />
        <path
           d="m 139.50595,145.80952 h -1.6192 V 132.4081 h 1.6192 z"
           style="font-size:17.63888931px;stroke-width:0.1;stroke-miterlimit:4;stroke-dasharray:none;paint-order:stroke fill markers"
           id="path5653"
           inkscape:connector-curvature="0" />
        <path
           d="m 150.20297,145.80952 h -1.61059 v -1.02491 q -0.21532,0.14642 -0.58566,0.41341 -0.36174,0.25838 -0.70625,0.41341 -0.4048,0.19809 -0.93017,0.32729 -0.52538,0.1378 -1.23163,0.1378 -1.30052,0 -2.20486,-0.86127 -0.90433,-0.86128 -0.90433,-2.19625 0,-1.09382 0.46508,-1.76561 0.4737,-0.68041 1.34359,-1.06798 0.8785,-0.38758 2.11012,-0.52538 1.23162,-0.1378 2.64411,-0.20671 v -0.24977 q 0,-0.55121 -0.19809,-0.91295 -0.18948,-0.36173 -0.55122,-0.56844 -0.34451,-0.19809 -0.82682,-0.26699 -0.48231,-0.0689 -1.00769,-0.0689 -0.63734,0 -1.4211,0.17225 -0.78376,0.16364 -1.6192,0.48231 h -0.0861 v -1.64503 q 0.4737,-0.12919 1.36942,-0.28422 0.89573,-0.15503 1.76561,-0.15503 1.01631,0 1.76562,0.17226 0.75792,0.16364 1.30913,0.56844 0.5426,0.39618 0.82682,1.02491 0.28423,0.62873 0.28423,1.55891 z m -1.61059,-2.3685 v -2.67856 q -0.74069,0.0431 -1.74838,0.12919 -0.99908,0.0861 -1.58475,0.24977 -0.69763,0.19809 -1.12827,0.62012 -0.43063,0.41341 -0.43063,1.14549 0,0.82682 0.49954,1.24885 0.49953,0.41341 1.52445,0.41341 0.85266,0 1.55891,-0.32728 0.70624,-0.3359 1.30913,-0.80099 z"
           style="font-size:17.63888931px;stroke-width:0.1;stroke-miterlimit:4;stroke-dasharray:none;paint-order:stroke fill markers"
           id="path5655"
           inkscape:connector-curvature="0" />
        <path
           d="m 161.38231,145.80952 h -1.6192 v -5.4777 q 0,-0.66318 -0.0775,-1.24023 -0.0775,-0.58567 -0.28422,-0.91295 -0.21532,-0.36174 -0.62012,-0.53399 -0.4048,-0.18087 -1.05075,-0.18087 -0.66319,0 -1.38666,0.32728 -0.72347,0.32729 -1.38665,0.83544 v 7.18302 h -1.61919 v -9.62042 h 1.61919 v 1.06797 q 0.75792,-0.62873 1.56752,-0.98185 0.8096,-0.35312 1.66226,-0.35312 1.55891,0 2.37712,0.93879 0.81821,0.93879 0.81821,2.7044 z"
           style="font-size:17.63888931px;stroke-width:0.1;stroke-miterlimit:4;stroke-dasharray:none;paint-order:stroke fill markers"
           id="path5657"
           inkscape:connector-curvature="0" />
        <path
           d="m 172.30325,145.80952 h -1.61919 v -1.00769 q -0.69764,0.6029 -1.45556,0.93879 -0.75792,0.3359 -1.64503,0.3359 -1.72255,0 -2.73885,-1.32636 -1.00769,-1.32636 -1.00769,-3.67764 0,-1.22301 0.34451,-2.17902 0.35312,-0.95602 0.9474,-1.62781 0.58567,-0.65457 1.36081,-0.99908 0.78376,-0.34451 1.6192,-0.34451 0.75792,0 1.34359,0.16364 0.58566,0.15503 1.23162,0.49093 v -4.16857 h 1.61919 z m -1.61919,-2.3685 v -5.52076 q -0.65457,-0.29284 -1.17134,-0.4048 -0.51676,-0.11197 -1.12826,-0.11197 -1.36082,0 -2.11874,0.9474 -0.75792,0.9474 -0.75792,2.68718 0,1.71393 0.58567,2.60966 0.58566,0.88711 1.87757,0.88711 0.68902,0 1.39527,-0.30145 0.70624,-0.31006 1.31775,-0.79237 z"
           style="font-size:17.63888931px;stroke-width:0.1;stroke-miterlimit:4;stroke-dasharray:none;paint-order:stroke fill markers"
           id="path5659"
           inkscape:connector-curvature="0" />
        <path
           d="m 182.96582,145.80952 h -1.61058 v -1.02491 q -0.21532,0.14642 -0.58567,0.41341 -0.36173,0.25838 -0.70624,0.41341 -0.4048,0.19809 -0.93018,0.32729 -0.52538,0.1378 -1.23162,0.1378 -1.30052,0 -2.20486,-0.86127 -0.90434,-0.86128 -0.90434,-2.19625 0,-1.09382 0.46509,-1.76561 0.4737,-0.68041 1.34359,-1.06798 0.8785,-0.38758 2.11012,-0.52538 1.23162,-0.1378 2.64411,-0.20671 v -0.24977 q 0,-0.55121 -0.19809,-0.91295 -0.18948,-0.36173 -0.55122,-0.56844 -0.34451,-0.19809 -0.82682,-0.26699 -0.48232,-0.0689 -1.00769,-0.0689 -0.63735,0 -1.42111,0.17225 -0.78375,0.16364 -1.61919,0.48231 h -0.0861 v -1.64503 q 0.4737,-0.12919 1.36943,-0.28422 0.89572,-0.15503 1.76561,-0.15503 1.0163,0 1.76561,0.17226 0.75792,0.16364 1.30914,0.56844 0.5426,0.39618 0.82682,1.02491 0.28422,0.62873 0.28422,1.55891 z m -1.61058,-2.3685 v -2.67856 q -0.7407,0.0431 -1.74839,0.12919 -0.99908,0.0861 -1.58474,0.24977 -0.69763,0.19809 -1.12827,0.62012 -0.43064,0.41341 -0.43064,1.14549 0,0.82682 0.49954,1.24885 0.49954,0.41341 1.52446,0.41341 0.85266,0 1.5589,-0.32728 0.70625,-0.3359 1.30914,-0.80099 z"
           style="font-size:17.63888931px;stroke-width:0.1;stroke-miterlimit:4;stroke-dasharray:none;paint-order:stroke fill markers"
           id="path5661"
           inkscape:connector-curvature="0" />
      </g>
      <path
         transform="matrix(0.25457208,0,0,0.21017597,153.53389,130.83474)"
         style="fill:none;fill-rule:evenodd;stroke:#0061ee;stroke-width:0.43231776;stroke-miterlimit:4;stroke-dasharray:none;stroke-opacity:1;paint-order:stroke fill markers"
         d="m 94.494057,125.3988 c 0.06593,0.10014 -0.10245,0.13827 -0.166427,0.10958 -0.173372,-0.0778 -0.154645,-0.31649 -0.05272,-0.44243 0.182311,-0.22528 0.526955,-0.18508 0.718431,0.004 0.281,0.27766 0.217065,0.74051 -0.06098,0.99443 -0.370586,0.33844 -0.955195,0.24975 -1.270436,-0.11783 -0.3967,-0.46256 -0.282803,-1.17042 0.174678,-1.54644 0.554072,-0.4554 1.38596,-0.31607 1.822441,0.23153 0.514378,0.64533 0.349478,1.60169 -0.288381,2.09845 -0.736433,0.57352 -1.817546,0.38297 -2.374445,-0.34523 -0.632783,-0.82744 -0.416533,-2.0335 0.402083,-2.65045 0.918363,-0.69213 2.249507,-0.45014 2.926449,0.45893 0.751534,1.00924 0.483778,2.46557 -0.515784,3.20245 -1.100082,0.81099 -2.681671,0.51745 -3.478454,-0.57263 -0.870473,-1.1909 -0.551129,-2.8978 0.629486,-3.75446 1.281684,-0.92999 3.113958,-0.58483 4.030459,0.68634 0.989528,1.37245 0.618547,3.33013 -0.743188,4.30646 -1.463212,1.04908 -3.546323,0.65227 -4.582463,-0.80004 -1.108658,-1.55396 -0.68601,-3.76253 0.856889,-4.85846 1.644692,-1.16825 3.978743,-0.71976 5.134468,0.91374 1.227839,1.73541 0.753503,4.19496 -0.970591,5.41047 -1.826139,1.28744 -4.411202,0.78725 -5.686473,-1.02745 -1.347058,-1.91685 -0.821018,-4.62744 1.084293,-5.96247 2.007562,-1.40668 4.84369,-0.85478 6.238477,1.14114 1.466305,2.09827 0.888551,5.05994 -1.197994,6.51448 -2.188967,1.52594 -5.2762,0.92232 -6.790482,-1.25484 -1.585572,-2.27967 -0.956096,-5.49246 1.311696,-7.06649 2.370358,-1.64521 5.708726,-0.98987 7.342487,1.36855 1.704854,2.46105 1.023654,5.92499 -1.425398,7.61849 -2.551738,1.7645 -6.141267,1.05743 -7.894491,-1.48225 -1.824153,-2.64242 -1.091214,-6.35754 1.539099,-8.17049 2.733109,-1.88381 6.573818,-1.125 8.446496,1.59595 1.943458,2.82379 1.158778,6.79009 -1.652801,8.72249 -2.914474,2.00312 -7.006379,1.19257 -8.998501,-1.70965 -2.062775,-3.00515 -1.226358,-7.22266 1.766503,-9.2745 3.095832,-2.12244 7.438946,-1.26015 9.550507,1.82335 2.1821,3.18651 1.29393,7.65524 -1.880207,9.82651 -3.277185,2.24176 -7.87152,1.32773 -10.102509,-1.93705 -2.301428,-3.36787 -1.36152,-8.08781 1.993907,-10.37852 3.458535,-2.36109 8.304099,-1.39531 10.654509,2.05076 2.42077,3.54921 1.42911,8.52039 -2.107604,10.93052 -3.639881,2.48043 -8.736683,1.4629 -11.206519,-2.16446 -2.5401,-3.73056 -1.496694,-8.95298 2.221311,-11.48252 3.821225,-2.59977 9.16927,-1.53049 11.758522,2.27816 2.65944,3.91189 1.56429,9.38556 -2.335011,12.03452 -4.002566,2.71912 -9.601862,1.59809 -12.310528,-2.39186 -2.778788,-4.09323 -1.631878,-9.81816 2.448714,-12.58653 4.183904,-2.83846 10.034456,-1.66568 12.862535,2.50557 2.89813,4.27457 1.69947,10.25075 -2.562418,13.13853 -4.365241,2.95781 -10.467052,1.73327 -13.414537,-2.61927 -3.017487,-4.45591 -1.76707,-10.68335 2.676117,-13.69054 4.546577,-3.07716 10.899651,-1.80086 13.966538,2.73297 3.13684,4.63725 1.83467,11.11595 -2.78982,14.24255 -4.727905,3.19651 -11.332247,1.86846 -14.518542,-2.84667 -3.256194,-4.81858 -1.902266,-11.54856 2.903521,-14.79455 4.909243,-3.31588 11.764851,-1.93607 15.070551,2.96037 3.37555,4.99991 1.96987,11.98116 -3.01722,15.34655 -5.090576,3.43523 -12.197461,2.00367 -15.622558,-3.07407 -3.49491,-5.18124 -2.037468,-12.41376 3.130924,-15.89856 5.271904,-3.55459 12.630064,-2.07127 16.174564,3.18778 3.61426,5.36256 2.10507,12.84636 -3.24463,16.45056 -5.453232,3.67395 -13.062671,2.13887 -16.726564,-3.30148 -3.73363,-5.54389 -2.172673,-13.27897 3.358327,-17.00256 5.634562,-3.79332 13.495277,-2.20648 17.278567,3.41517 3.85299,5.72523 2.24028,13.71159 -3.47203,17.55458 -5.815885,3.91267 -13.927886,2.27407 -17.830571,-3.52888 -3.972355,-5.90656 -2.30788,-14.1442 3.585732,-18.10658 5.997215,-4.03204 14.360499,-2.34168 18.382579,3.64258 4.09172,6.08788 2.37548,14.57681 -3.69943,18.65858 -6.178545,4.1514 -14.793115,2.40929 -18.934587,-3.75628 -4.211084,-6.26921 -2.44309,-15.00942 3.813135,-19.21059 6.359867,-4.27076 15.225722,-2.47689 19.486582,3.86999 4.33045,6.45053 2.5107,15.44203 -3.92683,19.76259 -6.541193,4.39013 -15.658336,2.5445 -20.038594,-3.98369 -4.449816,-6.63185 -2.578301,-15.87464 4.040539,-20.31459 6.722517,-4.5095 16.090945,-2.61211 20.590595,4.09739 4.56918,6.81317 2.64591,16.30725 -4.15424,20.86659 -6.903839,4.62887 -16.523561,2.67972 -21.1426,-4.21109 -4.688551,-6.9945 -2.713516,-16.73987 4.267942,-21.4186 7.085165,-4.74824 16.956178,-2.74732 21.694608,4.32479 4.80792,7.17583 2.78112,17.17249 -4.38165,21.97061 -7.266483,4.8676 -17.388788,2.81493 -22.246606,-4.43849 -4.927288,-7.35715 -2.848731,-17.6051 4.495345,-22.52262 7.447811,-4.98697 17.821411,-2.88253 22.798611,4.5522 5.04666,7.53847 2.91634,18.03772 -4.60904,23.07462 -7.629136,5.10634 -18.254027,2.95014 -23.350623,-4.6659 -5.166026,-7.7198 -2.983947,-18.47033 4.722749,-23.62662 7.810456,-5.22571 18.686644,-3.01775 23.902624,4.7796 5.2854,7.90111 3.05156,18.90295 -4.83645,24.17862 -7.991777,5.34509 -19.119258,3.08536 -24.454629,-4.8933 -5.404767,-8.08244 -3.119164,-19.33556 4.950152,-24.73063 8.1731,-5.46445 19.551877,-3.15297 25.006637,5.007 5.52413,8.26376 3.18677,19.76819 -5.06386,25.28264 -8.354417,5.58382 -19.98449,3.22058 -25.558635,-5.1207 -5.64351,-8.44509 -3.254383,-20.20081 5.177556,-25.83465 8.535742,-5.70319 20.417109,-3.28818 26.110639,5.23441 5.76288,8.6264 3.322,20.63342 -5.29125,26.38665 -8.717067,5.82256 -20.849734,3.35579 -26.662652,-5.34811 -5.882252,-8.80773 -3.389602,-21.06604 5.40496,-26.93865 8.898383,-5.94194 21.282352,-3.42341 27.214652,5.46181 6.00162,8.98904 3.45721,21.49866 -5.51866,27.49065 -9.079705,6.06131 -21.714969,3.49102 -27.766658,-5.57551 -6.120997,-9.17036 -3.524822,-21.93128 5.632363,-28.04266 9.261025,-6.18068 22.147585,-3.55863 28.318665,5.68922 6.24037,9.35168 3.59243,22.36389 -5.74607,28.59466 -9.442343,6.30006 -22.580205,3.62624 -28.870664,-5.80292 -6.359743,-9.533 -3.660043,-22.79651 5.859766,-29.14667 9.623665,-6.41942 23.012828,-3.69384 29.422668,5.91662 2.68202,4.02124 3.92932,8.91737 3.50467,13.73178"
         id="path3705-6"
         inkscape:connector-curvature="0" />
      <path
         transform="matrix(0.25457208,0,0,0.21017597,79.450558,130.83473)"
         style="fill:none;fill-rule:evenodd;stroke:#0061ee;stroke-width:0.43231776;stroke-miterlimit:4;stroke-dasharray:none;stroke-opacity:1;paint-order:stroke fill markers"
         d="m 94.494057,125.3988 c 0.06593,0.10014 -0.10245,0.13827 -0.166427,0.10958 -0.173372,-0.0778 -0.154645,-0.31649 -0.05272,-0.44243 0.182311,-0.22528 0.526955,-0.18508 0.718431,0.004 0.281,0.27766 0.217065,0.74051 -0.06098,0.99443 -0.370586,0.33844 -0.955195,0.24975 -1.270436,-0.11783 -0.3967,-0.46256 -0.282803,-1.17042 0.174678,-1.54644 0.554072,-0.4554 1.38596,-0.31607 1.822441,0.23153 0.514378,0.64533 0.349478,1.60169 -0.288381,2.09845 -0.736433,0.57352 -1.817546,0.38297 -2.374445,-0.34523 -0.632783,-0.82744 -0.416533,-2.0335 0.402083,-2.65045 0.918363,-0.69213 2.249507,-0.45014 2.926449,0.45893 0.751534,1.00924 0.483778,2.46557 -0.515784,3.20245 -1.100082,0.81099 -2.681671,0.51745 -3.478454,-0.57263 -0.870473,-1.1909 -0.551129,-2.8978 0.629486,-3.75446 1.281684,-0.92999 3.113958,-0.58483 4.030459,0.68634 0.989528,1.37245 0.618547,3.33013 -0.743188,4.30646 -1.463212,1.04908 -3.546323,0.65227 -4.582463,-0.80004 -1.108658,-1.55396 -0.68601,-3.76253 0.856889,-4.85846 1.644692,-1.16825 3.978743,-0.71976 5.134468,0.91374 1.227839,1.73541 0.753503,4.19496 -0.970591,5.41047 -1.826139,1.28744 -4.411202,0.78725 -5.686473,-1.02745 -1.347058,-1.91685 -0.821018,-4.62744 1.084293,-5.96247 2.007562,-1.40668 4.84369,-0.85478 6.238477,1.14114 1.466305,2.09827 0.888551,5.05994 -1.197994,6.51448 -2.188967,1.52594 -5.2762,0.92232 -6.790482,-1.25484 -1.585572,-2.27967 -0.956096,-5.49246 1.311696,-7.06649 2.370358,-1.64521 5.708726,-0.98987 7.342487,1.36855 1.704854,2.46105 1.023654,5.92499 -1.425398,7.61849 -2.551738,1.7645 -6.141267,1.05743 -7.894491,-1.48225 -1.824153,-2.64242 -1.091214,-6.35754 1.539099,-8.17049 2.733109,-1.88381 6.573818,-1.125 8.446496,1.59595 1.943458,2.82379 1.158778,6.79009 -1.652801,8.72249 -2.914474,2.00312 -7.006379,1.19257 -8.998501,-1.70965 -2.062775,-3.00515 -1.226358,-7.22266 1.766503,-9.2745 3.095832,-2.12244 7.438946,-1.26015 9.550507,1.82335 2.1821,3.18651 1.29393,7.65524 -1.880207,9.82651 -3.277185,2.24176 -7.87152,1.32773 -10.102509,-1.93705 -2.301428,-3.36787 -1.36152,-8.08781 1.993907,-10.37852 3.458535,-2.36109 8.304099,-1.39531 10.654509,2.05076 2.42077,3.54921 1.42911,8.52039 -2.107604,10.93052 -3.639881,2.48043 -8.736683,1.4629 -11.206519,-2.16446 -2.5401,-3.73056 -1.496694,-8.95298 2.221311,-11.48252 3.821225,-2.59977 9.16927,-1.53049 11.758522,2.27816 2.65944,3.91189 1.56429,9.38556 -2.335011,12.03452 -4.002566,2.71912 -9.601862,1.59809 -12.310528,-2.39186 -2.778788,-4.09323 -1.631878,-9.81816 2.448714,-12.58653 4.183904,-2.83846 10.034456,-1.66568 12.862535,2.50557 2.89813,4.27457 1.69947,10.25075 -2.562418,13.13853 -4.365241,2.95781 -10.467052,1.73327 -13.414537,-2.61927 -3.017487,-4.45591 -1.76707,-10.68335 2.676117,-13.69054 4.546577,-3.07716 10.899651,-1.80086 13.966538,2.73297 3.13684,4.63725 1.83467,11.11595 -2.78982,14.24255 -4.727905,3.19651 -11.332247,1.86846 -14.518542,-2.84667 -3.256194,-4.81858 -1.902266,-11.54856 2.903521,-14.79455 4.909243,-3.31588 11.764851,-1.93607 15.070551,2.96037 3.37555,4.99991 1.96987,11.98116 -3.01722,15.34655 -5.090576,3.43523 -12.197461,2.00367 -15.622558,-3.07407 -3.49491,-5.18124 -2.037468,-12.41376 3.130924,-15.89856 5.271904,-3.55459 12.630064,-2.07127 16.174564,3.18778 3.61426,5.36256 2.10507,12.84636 -3.24463,16.45056 -5.453232,3.67395 -13.062671,2.13887 -16.726564,-3.30148 -3.73363,-5.54389 -2.172673,-13.27897 3.358327,-17.00256 5.634562,-3.79332 13.495277,-2.20648 17.278567,3.41517 3.85299,5.72523 2.24028,13.71159 -3.47203,17.55458 -5.815885,3.91267 -13.927886,2.27407 -17.830571,-3.52888 -3.972355,-5.90656 -2.30788,-14.1442 3.585732,-18.10658 5.997215,-4.03204 14.360499,-2.34168 18.382579,3.64258 4.09172,6.08788 2.37548,14.57681 -3.69943,18.65858 -6.178545,4.1514 -14.793115,2.40929 -18.934587,-3.75628 -4.211084,-6.26921 -2.44309,-15.00942 3.813135,-19.21059 6.359867,-4.27076 15.225722,-2.47689 19.486582,3.86999 4.33045,6.45053 2.5107,15.44203 -3.92683,19.76259 -6.541193,4.39013 -15.658336,2.5445 -20.038594,-3.98369 -4.449816,-6.63185 -2.578301,-15.87464 4.040539,-20.31459 6.722517,-4.5095 16.090945,-2.61211 20.590595,4.09739 4.56918,6.81317 2.64591,16.30725 -4.15424,20.86659 -6.903839,4.62887 -16.523561,2.67972 -21.1426,-4.21109 -4.688551,-6.9945 -2.713516,-16.73987 4.267942,-21.4186 7.085165,-4.74824 16.956178,-2.74732 21.694608,4.32479 4.80792,7.17583 2.78112,17.17249 -4.38165,21.97061 -7.266483,4.8676 -17.388788,2.81493 -22.246606,-4.43849 -4.927288,-7.35715 -2.848731,-17.6051 4.495345,-22.52262 7.447811,-4.98697 17.821411,-2.88253 22.798611,4.5522 5.04666,7.53847 2.91634,18.03772 -4.60904,23.07462 -7.629136,5.10634 -18.254027,2.95014 -23.350623,-4.6659 -5.166026,-7.7198 -2.983947,-18.47033 4.722749,-23.62662 7.810456,-5.22571 18.686644,-3.01775 23.902624,4.7796 5.2854,7.90111 3.05156,18.90295 -4.83645,24.17862 -7.991777,5.34509 -19.119258,3.08536 -24.454629,-4.8933 -5.404767,-8.08244 -3.119164,-19.33556 4.950152,-24.73063 8.1731,-5.46445 19.551877,-3.15297 25.006637,5.007 5.52413,8.26376 3.18677,19.76819 -5.06386,25.28264 -8.354417,5.58382 -19.98449,3.22058 -25.558635,-5.1207 -5.64351,-8.44509 -3.254383,-20.20081 5.177556,-25.83465 8.535742,-5.70319 20.417109,-3.28818 26.110639,5.23441 5.76288,8.6264 3.322,20.63342 -5.29125,26.38665 -8.717067,5.82256 -20.849734,3.35579 -26.662652,-5.34811 -5.882252,-8.80773 -3.389602,-21.06604 5.40496,-26.93865 8.898383,-5.94194 21.282352,-3.42341 27.214652,5.46181 6.00162,8.98904 3.45721,21.49866 -5.51866,27.49065 -9.079705,6.06131 -21.714969,3.49102 -27.766658,-5.57551 -6.120997,-9.17036 -3.524822,-21.93128 5.632363,-28.04266 9.261025,-6.18068 22.147585,-3.55863 28.318665,5.68922 6.24037,9.35168 3.59243,22.36389 -5.74607,28.59466 -9.442343,6.30006 -22.580205,3.62624 -28.870664,-5.80292 -6.359743,-9.533 -3.660043,-22.79651 5.859766,-29.14667 9.623665,-6.41942 23.012828,-3.69384 29.422668,5.91662 2.68202,4.02124 3.92932,8.91737 3.50467,13.73178"
         id="path3705-4"
         inkscape:connector-curvature="0" />
      <path
         style="fill:#000000;fill-opacity:1;stroke:#0061ee;stroke-width:0.1;stroke-miterlimit:4;stroke-dasharray:none;stroke-opacity:1;paint-order:stroke fill markers"
         d="M 26.458332,148.68246 H 193.52381 v 1.51191 H 26.458332 Z"
         id="rect6102"
         inkscape:connector-curvature="0" />
    </g>
  </g>
</svg>
